<?xml version="1.0" encoding="utf-8"?>
<!-- Generator: Adobe Illustrator 19.1.0, SVG Export Plug-In . SVG Version: 6.00 Build 0)  -->
<svg version="1.1" id="Lager_1" xmlns="http://www.w3.org/2000/svg" xmlns:xlink="http://www.w3.org/1999/xlink" x="0px" y="0px"
	 viewBox="-255 383.4 99.3 27.6" style="enable-background:new -255 383.4 99.3 27.6;" xml:space="preserve">
<style type="text/css">
	.st0{fill:#FFFFFF;}
	.st1{display:none;fill:#646363;}
	.st2{display:none;}
	.st3{display:inline;fill:#FFFFFF;}
	.st4{clip-path:url(#SVGID_4_);fill:#FFFFFF;}
	.st5{clip-path:url(#SVGID_8_);fill:#FFFFFF;}
	.st6{clip-path:url(#SVGID_12_);fill:#FFFFFF;}
	.st7{clip-path:url(#SVGID_16_);fill:#FFFFFF;}
	.st8{clip-path:url(#SVGID_20_);fill:#FFFFFF;}
	.st9{clip-path:url(#SVGID_23_);fill:#FFFFFF;}
	.st10{clip-path:url(#SVGID_25_);fill:#FFFFFF;}
	.st11{clip-path:url(#SVGID_27_);fill:#FFFFFF;}
	.st12{clip-path:url(#SVGID_29_);fill:#FFFFFF;}
	.st13{clip-path:url(#SVGID_31_);fill:#FFFFFF;}
	.st14{clip-path:url(#SVGID_33_);fill:#FFFFFF;}
	.st15{clip-path:url(#SVGID_35_);fill:#FFFFFF;}
	.st16{clip-path:url(#SVGID_37_);fill:#FFFFFF;}
	.st17{clip-path:url(#SVGID_39_);fill:#FFFFFF;}
	.st18{clip-path:url(#SVGID_41_);fill:#FFFFFF;}
	.st19{clip-path:url(#SVGID_43_);fill:#FFFFFF;}
	.st20{clip-path:url(#SVGID_45_);fill:#FFFFFF;}
	.st21{clip-path:url(#SVGID_47_);fill:#FFFFFF;}
	.st22{clip-path:url(#SVGID_49_);fill:#FFFFFF;}
	.st23{clip-path:url(#SVGID_51_);fill:#FFFFFF;}
	.st24{clip-path:url(#SVGID_53_);fill:#FFFFFF;}
	.st25{clip-path:url(#SVGID_55_);fill:#FFFFFF;}
	.st26{clip-path:url(#SVGID_57_);fill:#FFFFFF;}
	.st27{clip-path:url(#SVGID_59_);fill:#FFFFFF;}
	.st28{clip-path:url(#SVGID_61_);fill:#FFFFFF;}
	.st29{clip-path:url(#SVGID_63_);fill:#FFFFFF;}
	.st30{clip-path:url(#SVGID_65_);fill:#FFFFFF;}
	.st31{clip-path:url(#SVGID_67_);fill:#FFFFFF;}
	.st32{clip-path:url(#SVGID_69_);fill:#FFFFFF;}
	.st33{clip-path:url(#SVGID_71_);fill:#FFFFFF;}
	.st34{clip-path:url(#SVGID_73_);fill:#FFFFFF;}
	.st35{clip-path:url(#SVGID_75_);fill:#FFFFFF;}
	.st36{clip-path:url(#SVGID_77_);fill:#FFFFFF;}
	.st37{clip-path:url(#SVGID_79_);fill:#FFFFFF;}
	.st38{clip-path:url(#SVGID_81_);fill:#FFFFFF;}
	.st39{clip-path:url(#SVGID_83_);fill:#FFFFFF;}
	.st40{clip-path:url(#SVGID_85_);fill:#FFFFFF;}
	.st41{clip-path:url(#SVGID_87_);fill:#FFFFFF;}
	.st42{clip-path:url(#SVGID_89_);fill:#FFFFFF;}
	.st43{clip-path:url(#SVGID_91_);fill:#FFFFFF;}
	.st44{clip-path:url(#SVGID_93_);fill:#FFFFFF;}
	.st45{clip-path:url(#SVGID_95_);fill:#FFFFFF;}
	.st46{clip-path:url(#SVGID_97_);fill:#FFFFFF;}
	.st47{clip-path:url(#SVGID_99_);fill:#FFFFFF;}
	.st48{clip-path:url(#SVGID_101_);fill:#FFFFFF;}
	.st49{clip-path:url(#SVGID_103_);fill:#FFFFFF;}
	.st50{clip-path:url(#SVGID_105_);fill:#FFFFFF;}
	.st51{clip-path:url(#SVGID_107_);fill:#FFFFFF;}
	.st52{clip-path:url(#SVGID_109_);fill:#FFFFFF;}
	.st53{clip-path:url(#SVGID_111_);fill:#FFFFFF;}
	.st54{clip-path:url(#SVGID_113_);fill:#FFFFFF;}
</style>
<path class="st0" d="M-240,385.6l-3.9,18.9l-3.8-18.9h-2v24h0.8v-19.9l3.9,19.9h0.8l4.2-20.2v20.3h2v-24L-240,385.6L-240,385.6z
	 M-232.2,409.6h2v-24h-2V409.6z M-226.1,385.6v0.8h3.8v23.2h2v-23.2h3.8v-0.8H-226.1z M-215,385.6v0.8h3.8v23.2h2v-23.2h3.8v-0.8
	H-215z M-190.3,385.6v14.6h-4.6v-14.6h-2v24h2V401h4.6v8.6h2v-24C-188.3,385.6-190.3,385.6-190.3,385.6z M-179.2,390.7l1.9,9.6h-3.8
	L-179.2,390.7z M-179,385.6l-4.9,24h0.8l1.8-8.6h4.2l1.7,8.6h2l-4.7-24C-178.1,385.6-179,385.6-179,385.6z M-162,385.6l-3.9,18.9
	l-3.7-18.9h-2l4.7,24h0.8l4.9-24C-161.2,385.6-162,385.6-162,385.6z"/>
<rect x="-247.7" y="283.5" class="st1" width="90.7" height="99.8"/>
<g>
	<g class="st2">
		<polygon id="SVGID_1_" class="st3" points="-247.7,366.4 -209.7,333.1 -247.7,289.8 		"/>
	</g>
	<g>
		<defs>
			<polygon id="SVGID_2_" points="-247.7,366.4 -209.7,333.1 -247.7,289.8 			"/>
		</defs>
		<clipPath id="SVGID_4_">
			<use xlink:href="#SVGID_2_"  style="overflow:visible;"/>
		</clipPath>
		<path class="st4" d="M-284.5,336.7c-0.4-1.1-0.7-2.3-1-3.4c-0.4-1.9-0.8-4.1-0.1-6c0-0.1,0-0.2-0.1-0.3c-3.2-0.9-6.5-1.8-9.7-2.8
			c-1.6-0.4-3.1-0.9-4.7-1.3c-0.1,0-0.2-0.1-0.3-0.1c0.2,0,0,0-0.1-0.1c-0.1-0.1-0.3-0.1-0.4-0.1c-0.6,0-0.6,0.7-0.8,1.1
			c-0.4,0.7-0.6,1.4-0.9,2.1c-0.8,2.7-0.9,5.5-0.7,8.3c0.1,0.8,0.2,1.6,0.3,2.3c0.1,0.6,0.2,1.1,1,1.1c1.1-0.1,2.2-0.2,3.3-0.2
			c0.6,0-0.6,0.4-0.7,0.4c-0.6,0.2-1.2,0.3-1.8,0.5c-0.7,0.2-1.1,0.2-1,1c0.2,1.1,0.7,2.2,1.2,3.2c0.2,0.3,0.8,1.7,1.3,1.5
			c0.6-0.2,1.2-0.5,1.7-0.7c1.8-0.8,3.6-1.6,5.4-2.5c2.6-1.2,5.2-2.5,7.7-3.8c0.2-0.1,0.1-0.5-0.2-0.4c-3.4,1.7-6.9,3.4-10.4,5
			c-1,0.5-2,0.9-3,1.4c-0.4,0.2-0.7,0.3-1.1,0.4c-0.3,0.1-0.2,0.1-0.3,0c-0.2-0.2-0.4-0.5-0.6-0.8c-0.6-1-1.1-2.2-1.4-3.4
			c0-0.1-0.1-0.3-0.1-0.4c0,0.1-0.1,0.1,0.1,0.1c0.1,0,0.2-0.1,0.3-0.1c0.6-0.2,1.2-0.3,1.7-0.5c0.4-0.1,0.7-0.2,1.1-0.3
			c0.3-0.1,0.8-0.6,0.4-0.9c-0.2-0.2-0.5-0.1-0.8-0.1c-0.6,0-1.2,0.1-1.8,0.1c-0.5,0-1,0.1-1.5,0.1c-0.4,0-0.4-0.5-0.4-0.8
			c-0.1-0.8-0.2-1.5-0.3-2.3c-0.3-2.9-0.1-6,0.9-8.8c0.1-0.4,0.3-0.8,0.5-1.1c0.1-0.2,0.3-1,0.5-1c0.1,0,0.3,0.2,0.4,0.2
			c0.4,0.1,0.9,0.2,1.3,0.4c4.4,1.3,8.9,2.5,13.3,3.8c0-0.1-0.1-0.2-0.1-0.3c-0.7,1.9-0.4,4.1,0,6c0.3,1.2,0.6,2.5,1,3.7
			C-284.8,337.1-284.4,336.9-284.5,336.7"/>
	</g>
</g>
<g>
	<g class="st2">
		<polygon id="SVGID_3_" class="st3" points="-247.7,283.5 -247.7,384.8 -187.8,332.2 -230.5,283.5 		"/>
	</g>
	<g>
		<defs>
			<polygon id="SVGID_6_" points="-247.7,283.5 -247.7,384.8 -187.8,332.2 -230.5,283.5 			"/>
		</defs>
		<clipPath id="SVGID_8_">
			<use xlink:href="#SVGID_6_"  style="overflow:visible;"/>
		</clipPath>
		<path class="st5" d="M-270.7,348.9c0,0.7,0.2,1.4,0.8,1.8c0.3,0.2,0.8,0.3,0.9,0.3c1.1,0.3,2.3-0.5,2.4-1.7
			c0.1-0.8-0.6-1.3-1.2-1.5C-269,347.5-270.2,347.7-270.7,348.9c-0.1,0.2,0.3,0.3,0.4,0.1c0.4-0.9,1.4-1,2.3-0.7
			c0.4,0.1,0.8,0.3,1,0.7c0.5,1-0.9,1.9-1.8,1.7c-0.1,0-0.3,0-0.5-0.1c-0.7-0.2-0.9-0.9-0.9-1.6
			C-270.3,348.7-270.7,348.6-270.7,348.9"/>
	</g>
	<g>
		<defs>
			<polygon id="SVGID_10_" points="-247.7,283.5 -247.7,384.8 -187.8,332.2 -230.5,283.5 			"/>
		</defs>
		<clipPath id="SVGID_12_">
			<use xlink:href="#SVGID_10_"  style="overflow:visible;"/>
		</clipPath>
		<path class="st6" d="M-249.5,356.3c0.2,0.7,0.9,1.1,1.6,0.9c0.5-0.1,1-0.4,1.1-0.9c0.1-0.4-0.2-0.8-0.4-1.1
			c-0.3-0.3-0.8-0.3-1.1-0.3C-249,355-249.5,355.7-249.5,356.3c0,0.3,0.4,0.2,0.4-0.1c0-0.3,0.2-0.6,0.4-0.8c0.1,0,0.2,0,0.3-0.1
			c0.1,0,0,0,0.1,0c0.3,0,0.7,0,0.9,0.3c0.2,0.2,0.3,0.5,0.2,0.8c-0.1,0.3-0.5,0.4-0.7,0.5c-0.5,0.1-1-0.1-1.1-0.6
			C-249.1,356-249.5,356.1-249.5,356.3"/>
	</g>
	<g>
		<defs>
			<polygon id="SVGID_14_" points="-247.7,283.5 -247.7,384.8 -187.8,332.2 -230.5,283.5 			"/>
		</defs>
		<clipPath id="SVGID_16_">
			<use xlink:href="#SVGID_14_"  style="overflow:visible;"/>
		</clipPath>
		<path class="st7" d="M-241.7,346c-1,0.3-1.9,1.1-1.7,2.2c0.1,0.7,0.6,1.5,1.2,1.8c0.2,0.1,0.4,0.1,0.6,0.1c0.1,0,0.3,0,0.3,0
			c0.6,0,1.1-0.1,1.6-0.5c0.7-0.5,0.8-1.5,0.5-2.3C-239.5,346.3-240.6,345.8-241.7,346c-0.3,0.1-0.2,0.5,0.1,0.4
			c0.7-0.1,1.4,0.1,1.8,0.6c0.6,0.7,0.5,1.9-0.3,2.4c-0.3,0.2-0.8,0.3-1.1,0.2c-0.2,0-0.3,0-0.5,0c-0.7-0.1-1-0.8-1.2-1.4
			c-0.3-0.9,0.6-1.6,1.4-1.8C-241.3,346.3-241.4,345.9-241.7,346"/>
	</g>
	<g>
		<defs>
			<polygon id="SVGID_18_" points="-247.7,283.5 -247.7,384.8 -187.8,332.2 -230.5,283.5 			"/>
		</defs>
		<clipPath id="SVGID_20_">
			<use xlink:href="#SVGID_18_"  style="overflow:visible;"/>
		</clipPath>
		<path class="st8" d="M-240.4,343.5c0.2,0.7,1,0.9,1.6,0.9c0.6,0,0.9-0.8,0.8-1.3c-0.1-0.8-0.8-1-1.5-0.8
			C-240,342.4-240.5,342.8-240.4,343.5c0,0.3,0.5,0.2,0.4-0.1c-0.1-0.4,0.2-0.6,0.6-0.7c0.2,0,0.4-0.1,0.5-0.1
			c0.4,0,0.4,0.2,0.5,0.5c0.1,0.3-0.1,0.5-0.3,0.7c-0.1,0-0.1,0.1-0.2,0.1c-0.1,0.1,0.1,0,0,0c-0.4,0-1.1,0-1.2-0.5
			C-240,343.1-240.4,343.2-240.4,343.5"/>
	</g>
	<g>
		<defs>
			<polygon id="SVGID_22_" points="-247.7,283.5 -247.7,384.8 -187.8,332.2 -230.5,283.5 			"/>
		</defs>
		<clipPath id="SVGID_23_">
			<use xlink:href="#SVGID_22_"  style="overflow:visible;"/>
		</clipPath>
		<path class="st9" d="M-224.1,332.8c0.5,1.9,2.4,2.9,4.1,3.2c2.1,0.4,3.4-2.1,2.8-3.9c-0.5-1.5-2.2-2.3-3.7-2.2
			C-222.4,330.1-223.8,331.1-224.1,332.8c-0.1,0.2,0.4,0.2,0.4,0c0.2-1.4,1.4-2.1,2.7-2.4c1.3-0.3,2.7,0.4,3.3,1.6
			c0.8,1.5-0.4,4-2.3,3.6c-1.6-0.3-3.2-1.1-3.7-2.9C-223.8,332.4-224.2,332.5-224.1,332.8"/>
	</g>
	<g>
		<defs>
			<polygon id="SVGID_24_" points="-247.7,283.5 -247.7,384.8 -187.8,332.2 -230.5,283.5 			"/>
		</defs>
		<clipPath id="SVGID_25_">
			<use xlink:href="#SVGID_24_"  style="overflow:visible;"/>
		</clipPath>
		<path class="st10" d="M-222.1,331.6c-1,0.8-0.3,1.8,0.2,2.5c0.6,0.9,1.6,1.6,2.7,1.1c1.2-0.6,1.7-2.7,0.5-3.6
			c-0.6-0.4-1.1-0.5-1.8-0.6C-221.1,330.8-221.6,331.2-222.1,331.6c-0.2,0.2,0.1,0.5,0.3,0.3c0.4-0.3,0.8-0.6,1.3-0.5
			c0.4,0.1,0.7,0.1,1.1,0.2c1.4,0.5,1.2,2.6,0,3.2c-1.2,0.6-3.5-2-2.3-3C-221.7,331.7-221.9,331.4-222.1,331.6"/>
	</g>
</g>
<g>
	<g class="st2">
		<polygon id="SVGID_5_" class="st3" points="-247.7,366.4 -209.7,333.1 -247.7,289.8 		"/>
	</g>
	<g>
		<defs>
			<polygon id="SVGID_26_" points="-247.7,366.4 -209.7,333.1 -247.7,289.8 			"/>
		</defs>
		<clipPath id="SVGID_27_">
			<use xlink:href="#SVGID_26_"  style="overflow:visible;"/>
		</clipPath>
		<path class="st11" d="M-220.9,332.6c-0.5,0.5-0.6,1.1-0.1,1.6c0.1,0,0.1,0.1,0.2,0.1c-0.1-0.1,0,0,0.1,0.1
			c0.2,0.2,0.5,0.2,0.7,0.2c0.8,0,1.6-1.1,1-1.8c-0.2-0.3-0.6-0.3-0.9-0.4C-220.4,332.3-220.6,332.2-220.9,332.6
			c-0.2,0.2,0.1,0.5,0.3,0.3c0.3-0.2,0.4-0.1,0.7,0c0.2,0.1,0.5,0.1,0.6,0.2c0.3,0.3-0.1,0.8-0.4,1c-0.2,0.1-0.4,0.1-0.6,0.1
			c-0.2-0.1-0.2-0.1-0.4-0.3c-0.4-0.3-0.3-0.7,0-1C-220.5,332.7-220.7,332.4-220.9,332.6"/>
	</g>
	<g>
		<defs>
			<polygon id="SVGID_28_" points="-247.7,366.4 -209.7,333.1 -247.7,289.8 			"/>
		</defs>
		<clipPath id="SVGID_29_">
			<use xlink:href="#SVGID_28_"  style="overflow:visible;"/>
		</clipPath>
		<path class="st12" d="M-218.4,323.3c-1-1-2.4-1.8-3.8-1c-1.3,0.8-0.2,2.2,0.6,3c1.1,1,3.2,2.7,4.6,1.1c0.4-0.4,0-1-0.1-1.4
			C-217.3,324.3-218,323.7-218.4,323.3c-0.2-0.2-0.5,0.1-0.3,0.3c0.4,0.4,0.9,0.9,1.1,1.4c0.1,0.1,0.3,0.8,0.3,1s-0.4,0.4-0.5,0.4
			c-0.5,0.2-1.1,0.1-1.5,0c-0.7-0.2-1.3-0.8-1.9-1.3c-0.8-0.7-1.8-1.9-0.7-2.6c1.1-0.7,2.4,0.3,3.2,1
			C-218.5,323.7-218.2,323.5-218.4,323.3"/>
	</g>
	<g>
		<defs>
			<polygon id="SVGID_30_" points="-247.7,366.4 -209.7,333.1 -247.7,289.8 			"/>
		</defs>
		<clipPath id="SVGID_31_">
			<use xlink:href="#SVGID_30_"  style="overflow:visible;"/>
		</clipPath>
		<path class="st13" d="M-221.3,323.7c0.4,1.2,1.5,2.7,3,2.7c0.7,0,1.3-0.8,1.1-1.4c-0.1-0.6-0.9-1.2-1.3-1.6
			c-0.3-0.3-0.6-0.5-0.9-0.6c-0.4-0.2-1.1-0.5-1.5-0.1C-221.3,322.8-221.5,323.2-221.3,323.7c0.1,0.3,0.5,0.1,0.4-0.2
			c-0.2-0.7,0.6-0.7,1-0.6c0.3,0.1,0.6,0.3,0.9,0.4c0.4,0.3,1.6,1.4,1.4,2c-0.2,0.6-0.8,0.7-1.3,0.6c-1-0.3-1.7-1.4-2.1-2.4
			C-221,323.2-221.4,323.4-221.3,323.7"/>
	</g>
	<g>
		<defs>
			<polygon id="SVGID_32_" points="-247.7,366.4 -209.7,333.1 -247.7,289.8 			"/>
		</defs>
		<clipPath id="SVGID_33_">
			<use xlink:href="#SVGID_32_"  style="overflow:visible;"/>
		</clipPath>
		<path class="st14" d="M-219.7,323.3c-0.3,0.5,0,1,0.4,1.3c0.3,0.3,0.8,0.3,1-0.1c0.3-0.5,0.2-1.1-0.4-1.4c0.1,0,0.1,0.1,0,0
			c0,0-0.1,0-0.1-0.1c-0.1-0.1-0.2-0.1-0.3-0.1C-219.3,322.9-219.5,323-219.7,323.3c-0.2,0.2,0.2,0.5,0.4,0.2s0.4,0,0.5,0
			c0.1,0,0.1,0.1,0.2,0.1c0.2,0.2,0.1,0.5,0,0.6c-0.1,0.1-0.2,0.1-0.3,0c-0.1,0,0,0,0,0s0,0-0.1-0.1c-0.2-0.2-0.5-0.5-0.3-0.8
			C-219.2,323.2-219.6,323-219.7,323.3"/>
	</g>
</g>
<g>
	<g class="st2">
		<polygon id="SVGID_7_" class="st3" points="-247.7,283.5 -247.7,384.8 -187.8,332.2 -230.5,283.5 		"/>
	</g>
	<g>
		<defs>
			<polygon id="SVGID_34_" points="-247.7,283.5 -247.7,384.8 -187.8,332.2 -230.5,283.5 			"/>
		</defs>
		<clipPath id="SVGID_35_">
			<use xlink:href="#SVGID_34_"  style="overflow:visible;"/>
		</clipPath>
		<path class="st15" d="M-233.2,324.6c-0.7,0.2-1.3,0.7-1.2,1.4c0,1,1.1,1.7,2,1.6c0,0,0.1,0,0.2,0c0.2,0,0.3-0.1,0.5-0.2
			c0.4-0.3,0.6-0.8,0.5-1.3C-231.3,325-232.2,324.4-233.2,324.6c-0.3,0.1-0.2,0.5,0.1,0.4c0.7-0.1,1.3,0.2,1.5,0.9
			c0.1,0.5,0,0.9-0.5,1.1c-0.1,0.1-0.3,0.1-0.4,0.1c-0.7,0.3-1.5-0.3-1.5-1.1c0-0.5,0.5-0.8,0.9-0.9
			C-232.8,325-232.9,324.6-233.2,324.6"/>
	</g>
	<g>
		<defs>
			<polygon id="SVGID_36_" points="-247.7,283.5 -247.7,384.8 -187.8,332.2 -230.5,283.5 			"/>
		</defs>
		<clipPath id="SVGID_37_">
			<use xlink:href="#SVGID_36_"  style="overflow:visible;"/>
		</clipPath>
		<path class="st16" d="M-260.3,334.4c-0.7,0.2-1.3,0.7-1.2,1.4c0,1,1.1,1.7,2,1.6c-0.1,0,0.1,0,0.2,0c0.2,0,0.3-0.1,0.5-0.2
			c0.4-0.3,0.6-0.8,0.5-1.3C-258.4,334.8-259.3,334.2-260.3,334.4c-0.3,0.1-0.2,0.5,0.1,0.4c0.7-0.1,1.3,0.2,1.5,0.9
			c0.1,0.5,0,0.9-0.5,1.1c-0.1,0.1-0.3,0.1-0.4,0.1c-0.8,0.2-1.5-0.4-1.6-1.2c0-0.5,0.5-0.8,0.9-0.9
			C-260,334.8-260,334.4-260.3,334.4"/>
	</g>
	<g>
		<defs>
			<polygon id="SVGID_38_" points="-247.7,283.5 -247.7,384.8 -187.8,332.2 -230.5,283.5 			"/>
		</defs>
		<clipPath id="SVGID_39_">
			<use xlink:href="#SVGID_38_"  style="overflow:visible;"/>
		</clipPath>
		<path class="st17" d="M-267.6,325.5c-0.7,0.2-1.3,0.7-1.2,1.4c0,1,1.1,1.7,2,1.6c-0.1,0,0.1,0,0.2,0c0.2,0,0.3-0.1,0.5-0.2
			c0.4-0.3,0.6-0.8,0.5-1.3C-265.7,325.9-266.6,325.3-267.6,325.5c-0.3,0.1-0.2,0.5,0.1,0.4c0.7-0.1,1.3,0.2,1.5,0.9
			c0.1,0.5,0,0.9-0.5,1.1c-0.1,0.1-0.3,0.1-0.4,0.1c-0.8,0.2-1.5-0.4-1.6-1.2c0-0.5,0.5-0.8,0.9-0.9
			C-267.3,325.9-267.3,325.5-267.6,325.5"/>
	</g>
	<g>
		<defs>
			<polygon id="SVGID_40_" points="-247.7,283.5 -247.7,384.8 -187.8,332.2 -230.5,283.5 			"/>
		</defs>
		<clipPath id="SVGID_41_">
			<use xlink:href="#SVGID_40_"  style="overflow:visible;"/>
		</clipPath>
		<path class="st18" d="M-254.8,329.6c-1,0.3-1.9,1.1-1.7,2.2c0.1,0.7,0.6,1.5,1.2,1.8c0.2,0.1,0.4,0.1,0.6,0.1c0.1,0,0.3,0,0.3,0
			c0.6,0,1.1-0.1,1.6-0.5c0.8-0.6,0.8-1.5,0.6-2.3C-252.6,329.8-253.8,329.4-254.8,329.6c-0.2,0-0.2,0.4,0.1,0.4
			c0.7-0.1,1.4,0.1,1.8,0.6c0.6,0.7,0.5,1.9-0.3,2.4c-0.3,0.2-0.8,0.3-1.1,0.2c-0.2,0-0.3,0-0.5,0c-0.7-0.1-1-0.8-1.2-1.4
			c-0.3-0.9,0.6-1.6,1.4-1.8C-254.4,329.9-254.5,329.5-254.8,329.6"/>
	</g>
	<g>
		<defs>
			<polygon id="SVGID_42_" points="-247.7,283.5 -247.7,384.8 -187.8,332.2 -230.5,283.5 			"/>
		</defs>
		<clipPath id="SVGID_43_">
			<use xlink:href="#SVGID_42_"  style="overflow:visible;"/>
		</clipPath>
		<path class="st19" d="M-272.2,322.5c-1,0.3-2.1,1.2-2,2.3c0.1,0.8,0.6,1.8,1.4,2.1c0.4,0.2,0.9,0.1,1.1,0.1
			c0.7,0.1,1.4-0.1,1.9-0.6c0.8-0.7,0.8-1.8,0.5-2.7C-269.8,322.7-271.1,322.2-272.2,322.5c-0.3,0.1-0.2,0.5,0.1,0.4
			c0.8-0.2,1.6,0.1,2.1,0.6c0.8,0.8,0.7,2.2-0.3,2.9c-0.4,0.3-0.9,0.3-1.4,0.3c-0.2,0-0.4,0-0.7,0c-0.8-0.2-1.2-1-1.4-1.8
			c-0.2-1,0.8-1.8,1.6-2C-271.9,322.8-271.9,322.4-272.2,322.5"/>
	</g>
	<g>
		<defs>
			<polygon id="SVGID_44_" points="-247.7,283.5 -247.7,384.8 -187.8,332.2 -230.5,283.5 			"/>
		</defs>
		<clipPath id="SVGID_45_">
			<use xlink:href="#SVGID_44_"  style="overflow:visible;"/>
		</clipPath>
		<path class="st20" d="M-266.7,309.4c-0.7,0.2-1.3,0.7-1.2,1.4c0,1,1.1,1.7,2,1.6c-0.1,0,0.1,0,0.2,0c0.2,0,0.3-0.1,0.5-0.2
			c0.4-0.3,0.6-0.8,0.5-1.3C-264.8,309.8-265.7,309.1-266.7,309.4c-0.3,0.1-0.2,0.5,0.1,0.4c0.7-0.1,1.3,0.2,1.5,0.9
			c0.1,0.5,0,0.9-0.5,1.1c-0.1,0.1-0.3,0.1-0.4,0.1c-0.8,0.2-1.5-0.4-1.6-1.2c0-0.5,0.5-0.8,0.9-0.9
			C-266.3,309.7-266.4,309.3-266.7,309.4"/>
	</g>
	<g>
		<defs>
			<polygon id="SVGID_46_" points="-247.7,283.5 -247.7,384.8 -187.8,332.2 -230.5,283.5 			"/>
		</defs>
		<clipPath id="SVGID_47_">
			<use xlink:href="#SVGID_46_"  style="overflow:visible;"/>
		</clipPath>
		<path class="st21" d="M-247.6,317.4c-0.5,0.1-1,0.5-1,1.1c0,0.8,0.8,1.4,1.6,1.2c-0.1,0,0.1,0,0.1,0c0.1,0,0.3-0.1,0.4-0.2
			c0.4-0.1,0.5-0.5,0.5-0.9C-246.1,317.8-246.8,317.3-247.6,317.4c-0.3,0.1-0.2,0.5,0.1,0.4c0.5-0.1,1,0.1,1.1,0.7
			c0.1,0.3,0,0.7-0.3,0.8c-0.2,0.1-0.3,0.1-0.4,0.1c-0.6,0.1-1.1-0.3-1.1-0.9c0-0.4,0.3-0.6,0.7-0.7
			C-247.3,317.8-247.3,317.4-247.6,317.4"/>
	</g>
	<g>
		<defs>
			<polygon id="SVGID_48_" points="-247.7,283.5 -247.7,384.8 -187.8,332.2 -230.5,283.5 			"/>
		</defs>
		<clipPath id="SVGID_49_">
			<use xlink:href="#SVGID_48_"  style="overflow:visible;"/>
		</clipPath>
		<path class="st22" d="M-244.1,313.9c-1.1,0.3-1.9,1.1-1.8,2.3c0.1,0.7,0.6,1.5,1.3,1.8c0.3,0.1,0.8,0.1,1,0.1
			c0.6,0,1.2-0.1,1.7-0.5c0.8-0.6,0.8-1.6,0.5-2.4C-241.8,314.1-243,313.6-244.1,313.9c-0.3,0.1-0.2,0.5,0.1,0.4
			c0.7-0.2,1.4,0.1,1.9,0.6c0.6,0.8,0.5,2-0.3,2.5c-0.3,0.2-0.8,0.3-1.2,0.2c-0.2,0-0.3,0-0.5,0c-0.7-0.1-1.1-0.8-1.3-1.4
			c-0.3-1,0.6-1.7,1.4-1.9C-243.7,314.2-243.8,313.8-244.1,313.9"/>
	</g>
	<g>
		<defs>
			<polygon id="SVGID_50_" points="-247.7,283.5 -247.7,384.8 -187.8,332.2 -230.5,283.5 			"/>
		</defs>
		<clipPath id="SVGID_51_">
			<use xlink:href="#SVGID_50_"  style="overflow:visible;"/>
		</clipPath>
		<path class="st23" d="M-254.1,334.4c-0.7,0.9,0.8,2.7,1.8,1.9c0.7-0.6,0.6-1.6-0.2-2.1c0,0-0.3-0.1-0.2-0.1
			c-0.1-0.1-0.2-0.1-0.3-0.1C-253.3,333.9-253.7,334.1-254.1,334.4c-0.2,0.1,0.1,0.5,0.3,0.3c0.4-0.3,0.6-0.3,1-0.1
			c0.6,0.2,0.8,1.1,0.2,1.5c-0.2,0.1-0.4,0.1-0.6,0c0,0-0.1-0.1,0,0l-0.1-0.1c-0.3-0.3-0.8-0.9-0.4-1.3
			C-253.5,334.5-253.9,334.2-254.1,334.4"/>
	</g>
	<g>
		<defs>
			<polygon id="SVGID_52_" points="-247.7,283.5 -247.7,384.8 -187.8,332.2 -230.5,283.5 			"/>
		</defs>
		<clipPath id="SVGID_53_">
			<use xlink:href="#SVGID_52_"  style="overflow:visible;"/>
		</clipPath>
		<path class="st24" d="M-239.1,308.2c-0.8,0.2-1.6,0.8-1.5,1.7c0,1.3,1.3,2.1,2.5,1.9c0.1,0,0.6-0.1,0.8-0.3c0.5-0.4,0.7-1,0.6-1.6
			C-236.9,308.7-237.9,308-239.1,308.2c-0.3,0.1-0.2,0.5,0.1,0.4c0.9-0.2,1.7,0.3,1.9,1.2c0.2,0.9-0.3,1.5-1.1,1.6
			c-1,0.2-2-0.6-2-1.6c0-0.6,0.6-1.1,1.2-1.2C-238.8,308.6-238.9,308.2-239.1,308.2"/>
	</g>
	<g>
		<defs>
			<polygon id="SVGID_54_" points="-247.7,283.5 -247.7,384.8 -187.8,332.2 -230.5,283.5 			"/>
		</defs>
		<clipPath id="SVGID_55_">
			<use xlink:href="#SVGID_54_"  style="overflow:visible;"/>
		</clipPath>
		<path class="st25" d="M-243.3,307.9c-0.4,0.1-0.8,0.4-0.8,0.9c0,0.7,0.7,1.1,1.3,1c-0.1,0,0.1,0,0.1,0c0.1,0,0.2-0.1,0.3-0.1
			c0.3-0.2,0.4-0.5,0.3-0.9C-242.1,308.2-242.7,307.8-243.3,307.9c-0.3,0.1-0.2,0.5,0.1,0.4c0.4-0.1,0.7,0.1,0.8,0.5
			c0,0.2,0,0.5-0.2,0.6h-0.1c-0.1,0,0.1,0-0.1,0c-0.4,0.1-0.8-0.2-0.8-0.6c0-0.3,0.3-0.4,0.5-0.5
			C-243,308.3-243.1,307.8-243.3,307.9"/>
	</g>
	<g>
		<defs>
			<polygon id="SVGID_56_" points="-247.7,283.5 -247.7,384.8 -187.8,332.2 -230.5,283.5 			"/>
		</defs>
		<clipPath id="SVGID_57_">
			<use xlink:href="#SVGID_56_"  style="overflow:visible;"/>
		</clipPath>
		<path class="st26" d="M-216.7,336.8c0.5,0.3,1,0.3,1.5,0.3c0.6,0,0.9-0.5,1.2-1c0.4-0.6,0.7-1.5,0.6-2.2c0-0.2-0.3-0.2-0.4-0.1
			c-0.8,1-1.7,2.1-2.9,2.7c-0.2,0.1-0.1,0.5,0.2,0.4c1.3-0.6,2.3-1.7,3.1-2.8c-0.1,0-0.3-0.1-0.4-0.1c0.1,1.4-1.1,3.5-2.7,2.5
			C-216.7,336.3-216.9,336.6-216.7,336.8"/>
	</g>
</g>
<g>
	<g class="st2">
		<polygon id="SVGID_9_" class="st3" points="-247.7,366.4 -209.7,333.1 -247.7,289.8 		"/>
	</g>
	<g>
		<defs>
			<polygon id="SVGID_58_" points="-247.7,366.4 -209.7,333.1 -247.7,289.8 			"/>
		</defs>
		<clipPath id="SVGID_59_">
			<use xlink:href="#SVGID_58_"  style="overflow:visible;"/>
		</clipPath>
		<path class="st27" d="M-231.7,329.3c-1.9,1.5-1.6,4.4-0.8,6.3c0.5,1.2,1.3,2.4,2.3,3.2c0.4,0.3,0.7,0.5,1.1,0.7
			c1.4,0.6,2.9,0.9,4.5,0.8c1.6,0,3,0.1,4.6-0.4c0.6-0.2,1.2-0.4,1.9-0.6c0.7-0.3,1.4-0.7,2.1-1.2s1.4-1.1,1.9-1.7
			c0.3-0.5,0.5-1.1,0.7-1.7c0.1-0.2,0.1-0.4,0.1-0.7c0-0.1,0.1-0.4,0-0.2c0.5-0.7,0.7-1.6,0.6-2.4c-0.1-0.7-0.7-1.3-1.1-1.8
			c-0.5-0.6-1-1.2-1.5-1.8c-0.6-0.7-1.4-1.3-1.8-2.3c-0.1-0.3-0.5-0.1-0.4,0.2c0.3,1,1.1,1.6,1.8,2.3c0.5,0.5,0.9,1.1,1.4,1.6
			c0.6,0.8,1.3,1.5,1.1,2.5c-0.1,0.5-0.3,0.9-0.5,1.3c-0.1,0.2-0.1,0.5-0.1,0.7c-0.1,0.7-0.4,1.5-0.8,2.1c-0.3,0.4-0.7,0.6-1,0.9
			c-0.4,0.4-0.9,0.8-1.5,1.1c-2,1.2-4.5,1.7-6.7,1.7c-2.1,0-4.6-0.2-6.3-1.5c-1.6-1.3-2.7-3.6-2.7-5.6c0-1.1,0.4-2.4,1.3-3.1
			C-231.2,329.5-231.5,329.2-231.7,329.3"/>
	</g>
	<g>
		<defs>
			<polygon id="SVGID_60_" points="-247.7,366.4 -209.7,333.1 -247.7,289.8 			"/>
		</defs>
		<clipPath id="SVGID_61_">
			<use xlink:href="#SVGID_60_"  style="overflow:visible;"/>
		</clipPath>
		<path class="st28" d="M-284.4,333.4c0,0.7,0.3,1.5,0.6,2.2c0.9,2.5,2.5,4.7,4.1,6.9c2.2,2.9,4.6,5.7,7.6,7.9
			c1.4,1.1,2.9,2,4.6,2.7c0.3,0.1,0.5,0.2,0.8,0c1.1-0.7,2.3-1.5,3.1-2.5c-0.1,0-0.2,0-0.4,0c0.2,0.7-0.7,1.7-1.1,2.2
			c-0.4,0.4-0.7,0.9-1.1,1.2c-0.1,0.1-0.1,0.3,0.1,0.4c4.9,2,10.1,3.6,15.3,4.4c5.1,0.8,10.4-0.8,14.9-3.3
			c5.4-3.1,9.7-7.7,13.4-12.6c0.2-0.2-0.1-0.4-0.3-0.3c-6.2,4.5-12.7,9-20.4,10.1c-3.5,0.5-7,0.4-10.5-0.4c-3.4-0.7-6.7-1.8-9.8-3.3
			c-2.4-1.2-4.7-2.8-7-4.2c-2.8-1.7-5.3-3.8-7.7-6c-1.9-1.7-3.8-3.5-5.6-5.4c-0.2-0.2-0.5,0.1-0.3,0.3c3.2,3.4,6.7,6.7,10.5,9.5
			c2.3,1.8,4.9,3.3,7.4,4.8c2.4,1.5,4.9,2.6,7.5,3.5c3.6,1.2,7.3,2,11.1,2c2.7,0,5.3-0.3,7.9-1c1.7-0.5,3.3-1,5-1.8
			c4.3-2.1,8.4-4.8,12.2-7.7c-0.1-0.1-0.2-0.2-0.3-0.3c-5.4,7.2-12.2,13.6-21.2,15.6c-2.1,0.5-4.3,0.6-6.4,0.2
			c-2.5-0.4-4.9-1-7.3-1.7c-2.7-0.8-5.5-1.7-8.1-2.8c0,0.1,0,0.2,0.1,0.4c0.5-0.5,1-1.1,1.5-1.7c0.4-0.6,1.1-1.5,0.9-2.3
			c-0.1-0.2-0.3-0.1-0.4,0c-0.8,1-2,1.8-3.1,2.5c0.1,0,0.2,0,0,0c-0.2-0.1-0.4-0.1-0.6-0.2c-1.9-0.8-3.7-2.1-5.2-3.4
			c-3-2.5-5.5-5.6-7.7-8.8c-1.2-1.8-2.4-3.8-3-5.9c-0.1-0.3-0.2-0.8-0.2-1C-284,333.1-284.4,333.1-284.4,333.4"/>
	</g>
</g>
<g>
	<g class="st2">
		<polygon id="SVGID_11_" class="st3" points="-247.7,283.5 -247.7,384.8 -187.8,332.2 -230.5,283.5 		"/>
	</g>
	<g>
		<defs>
			<polygon id="SVGID_62_" points="-247.7,283.5 -247.7,384.8 -187.8,332.2 -230.5,283.5 			"/>
		</defs>
		<clipPath id="SVGID_63_">
			<use xlink:href="#SVGID_62_"  style="overflow:visible;"/>
		</clipPath>
		<path class="st29" d="M-284.4,329.9c1.3-2.2,2.7-4.2,4.4-6.1c2-2.1,4.2-3.9,6.5-5.6c3.1-2.2,6.5-4.4,10-5.9
			c2.7-1.2,5.6-1.9,8.6-2.2c4.9-0.4,9.9,0.4,14.5,2c2.1,0.7,4.2,1.6,6,2.7c1.9,1.1,3.7,2.3,5.6,3.4c1.2,0.7,2.5,1.5,3.7,2.2
			c0.4,0.2,1.4,1,1.8,0.8c0.1,0,0.1-0.2,0.1-0.3c-1.5-3.3-3.7-6.1-6.2-8.7c-0.7-0.8-1.5-1.5-2.3-2.2c-0.4-0.3-0.5-0.6-1-0.9
			c-0.2-0.1-0.5-0.1-0.7,0.1c-0.1,0.2-0.1,0.4-0.1,0.6c0,0.5-0.1,1.1-0.1,1.6c-0.1,0.5-0.1,1.1-0.4,1.5l-0.1,0.1
			c0.1,0,0.1,0.1,0.1,0c0-0.1-0.1-0.2-0.1-0.3c-0.3-1-0.4-2-0.6-3.1c-0.1-0.5-0.1-1-0.4-1.4c-0.6-0.7-1.6-1.1-2.5-1.4
			c-1.6-0.7-3.3-1.1-4.9-1.5c-1.9-0.4-3.8-0.6-5.6-0.9c-1.9-0.1-3.8-0.1-5.7,0c-1.7,0.1-3.4,0.3-5.2,0.5c-0.4,0.1-0.8,0.1-1.2,0.2
			c-0.2,0-0.1,0-0.2,0c-0.8,0.1-1.6,0.3-2.3,0.6c-5.3,1.7-10,5.5-14,9.3c-3.5,3.3-7.2,7.7-8,12.6c-0.1,0.7-0.2,1.5,0,2.1
			c0.1,0.3,0.5,0.2,0.4-0.1c-0.1-0.6-0.1-1.2,0-1.8c0.2-1.8,1-3.6,1.9-5.2c1.7-3,4-5.6,6.5-7.9c2.6-2.4,5.4-4.7,8.5-6.5
			c2.2-1.3,4.7-2.4,7.1-2.8c2.8-0.5,5.8-0.7,8.6-0.8c0.9,0,1.8,0,2.7,0.1s1.8,0.3,2.7,0.4c2.1,0.2,4.1,0.6,6.2,1.2
			c1.4,0.4,2.8,0.9,4,1.6c0.6,0.3,0.9,0.6,1,1.2c0.1,0.5,0.4,4.4,1.2,4.2c0.6-0.2,0.7-1.2,0.7-1.7c0-0.3,0.2-2.4,0.3-2.4
			c0.3,0.1,0.4,0.3,0.6,0.5c1.7,1.4,3.2,3,4.6,4.6c1.7,2,3.1,4.1,4.2,6.4c0-0.1,0.1-0.2,0.1-0.3c0.1,0-0.2-0.1-0.3-0.2
			c-0.3-0.1-0.6-0.3-0.9-0.5c-0.9-0.5-1.7-1-2.6-1.5c-1.9-1.1-3.7-2.2-5.5-3.3c-1.4-0.9-2.9-1.7-4.4-2.4c-9-4-19.7-4.9-28.5-0.1
			c-4.4,2.4-8.7,5.1-12.4,8.5c-1.3,1.1-2.4,2.4-3.5,3.7c-1.2,1.4-2.1,3-3.1,4.6C-284.9,329.9-284.5,330.1-284.4,329.9"/>
	</g>
</g>
<g>
	<g class="st2">
		<polygon id="SVGID_13_" class="st3" points="-196.5,331.7 -157,376.8 -157,297.1 		"/>
	</g>
	<g>
		<defs>
			<polygon id="SVGID_64_" points="-196.5,331.7 -157,376.8 -157,297.1 			"/>
		</defs>
		<clipPath id="SVGID_65_">
			<use xlink:href="#SVGID_64_"  style="overflow:visible;"/>
		</clipPath>
		<path class="st30" d="M-170.2,337.1c-0.4-1.1-0.7-2.3-1-3.4c-0.4-1.9-0.8-4.1-0.1-6c0-0.1,0-0.2-0.1-0.3c-3.2-0.9-6.5-1.8-9.7-2.8
			c-1.6-0.4-3.1-0.9-4.7-1.3c-0.1,0-0.2-0.1-0.3-0.1c0.2,0,0,0-0.1-0.1c-0.1-0.1-0.3-0.1-0.4-0.1c-0.6,0-0.6,0.7-0.8,1.1
			c-0.4,0.7-0.6,1.4-0.9,2.1c-0.8,2.7-0.9,5.5-0.7,8.3c0.1,0.8,0.2,1.6,0.3,2.3c0.1,0.6,0.2,1.1,1.1,1.1c1.1-0.1,2.2-0.2,3.3-0.2
			c0.6,0-0.6,0.4-0.7,0.4c-0.6,0.2-1.2,0.3-1.8,0.5c-0.7,0.2-1.1,0.2-1,1c0.2,1.1,0.7,2.2,1.2,3.2c0.2,0.3,0.8,1.7,1.3,1.5
			c0.6-0.2,1.2-0.5,1.7-0.7c1.8-0.8,3.6-1.6,5.4-2.5c2.6-1.2,5.2-2.5,7.7-3.8c0.2-0.1,0.1-0.5-0.2-0.4c-3.4,1.7-6.9,3.4-10.4,5
			c-1,0.5-2,0.9-3,1.4c-0.4,0.2-0.7,0.3-1.1,0.4c-0.3,0.1-0.2,0.1-0.3,0c-0.2-0.2-0.4-0.5-0.6-0.8c-0.6-1-1.1-2.2-1.4-3.4
			c0-0.1-0.1-0.3-0.1-0.4c0,0.1-0.1,0.1,0.1,0.1c0.1,0,0.2-0.1,0.3-0.1c0.6-0.2,1.2-0.3,1.7-0.5c0.4-0.1,0.7-0.2,1.1-0.3
			c0.3-0.1,0.8-0.6,0.4-0.9c0.1,0-0.2,0-0.5,0c-0.6,0-1.2,0.1-1.8,0.1c-0.5,0-1,0.1-1.5,0.1c-0.4,0-0.4-0.5-0.4-0.8
			c-0.1-0.8-0.2-1.5-0.3-2.3c-0.3-2.9-0.1-6,0.9-8.8c0.1-0.4,0.3-0.8,0.5-1.1c0.1-0.2,0.3-1,0.5-1c0.1,0,0.3,0.2,0.4,0.2
			c0.4,0.1,0.9,0.2,1.3,0.4c4.4,1.3,8.9,2.5,13.3,3.8c0-0.1-0.1-0.2-0.1-0.3c-0.7,1.9-0.4,4.1,0,6c0.3,1.2,0.6,2.5,1,3.7
			C-170.5,337.6-170.1,337.4-170.2,337.1"/>
	</g>
</g>
<g>
	<g class="st2">
		<polygon id="SVGID_15_" class="st3" points="-171.7,283.5 -219.3,325.2 -157,396.3 -157,283.5 		"/>
	</g>
	<g>
		<defs>
			<polygon id="SVGID_66_" points="-171.7,283.5 -219.3,325.2 -157,396.3 -157,283.5 			"/>
		</defs>
		<clipPath id="SVGID_67_">
			<use xlink:href="#SVGID_66_"  style="overflow:visible;"/>
		</clipPath>
		<path class="st31" d="M-156.4,349.4c0,0.7,0.2,1.4,0.8,1.8c0.3,0.2,0.8,0.3,0.9,0.3c1.1,0.3,2.3-0.5,2.4-1.7
			c0.1-0.8-0.6-1.3-1.2-1.5C-154.6,348-155.8,348.2-156.4,349.4c-0.1,0.2,0.3,0.3,0.4,0.1c0.4-0.9,1.4-1,2.3-0.7
			c0.4,0.1,0.8,0.3,1,0.7c0.5,1-0.9,1.9-1.8,1.7c-0.1,0-0.3,0-0.5-0.1c-0.7-0.2-1-0.9-0.9-1.6C-155.9,349.2-156.4,349.1-156.4,349.4
			"/>
	</g>
	<g>
		<defs>
			<polygon id="SVGID_68_" points="-171.7,283.5 -219.3,325.2 -157,396.3 -157,283.5 			"/>
		</defs>
		<clipPath id="SVGID_69_">
			<use xlink:href="#SVGID_68_"  style="overflow:visible;"/>
		</clipPath>
		<path class="st32" d="M-135.1,356.8c0.2,0.7,0.9,1.1,1.6,0.9c0.5-0.1,1-0.4,1.1-0.9c0.1-0.4-0.2-0.8-0.4-1.1
			c-0.3-0.3-0.8-0.3-1.1-0.3C-134.7,355.4-135.2,356.2-135.1,356.8c0,0.3,0.4,0.2,0.4-0.1c0-0.3,0.2-0.6,0.4-0.8
			c0.1-0.1,0.2-0.1,0.2-0.1c0.1,0,0,0,0.1,0c0.3,0,0.7,0,0.9,0.3c0.2,0.2,0.3,0.5,0.2,0.8s-0.5,0.4-0.7,0.5c-0.5,0.1-1-0.1-1.1-0.6
			C-134.8,356.5-135.2,356.6-135.1,356.8"/>
	</g>
	<g>
		<defs>
			<polygon id="SVGID_70_" points="-171.7,283.5 -219.3,325.2 -157,396.3 -157,283.5 			"/>
		</defs>
		<clipPath id="SVGID_71_">
			<use xlink:href="#SVGID_70_"  style="overflow:visible;"/>
		</clipPath>
		<path class="st33" d="M-127.3,346.5c-1,0.3-1.9,1.1-1.7,2.2c0.1,0.7,0.6,1.5,1.2,1.8c0.2,0.1,0.4,0.1,0.6,0.1c0.1,0,0.3,0,0.3,0
			c0.6,0,1.1-0.1,1.6-0.5c0.7-0.5,0.8-1.5,0.5-2.3C-125.1,346.8-126.3,346.3-127.3,346.5c-0.3,0.1-0.2,0.5,0.1,0.4
			c0.7-0.1,1.4,0.1,1.8,0.6c0.6,0.7,0.5,1.9-0.3,2.4c-0.3,0.2-0.8,0.3-1.1,0.2c-0.2,0-0.3,0-0.5,0c-0.7-0.1-1-0.8-1.2-1.4
			c-0.3-0.9,0.6-1.6,1.4-1.8C-127,346.8-127,346.4-127.3,346.5"/>
	</g>
	<g>
		<defs>
			<polygon id="SVGID_72_" points="-171.7,283.5 -219.3,325.2 -157,396.3 -157,283.5 			"/>
		</defs>
		<clipPath id="SVGID_73_">
			<use xlink:href="#SVGID_72_"  style="overflow:visible;"/>
		</clipPath>
		<path class="st34" d="M-126,344c0.2,0.7,1,0.9,1.6,0.9s0.9-0.8,0.8-1.3c-0.1-0.8-0.8-1-1.5-0.8C-125.7,342.9-126.1,343.3-126,344
			c0,0.3,0.5,0.2,0.4-0.1c-0.1-0.4,0.2-0.6,0.6-0.7c0.2,0,0.4-0.1,0.5-0.1c0.4,0,0.4,0.2,0.5,0.5c0.1,0.3-0.1,0.5-0.3,0.7
			c-0.1,0-0.1,0.1-0.2,0.1c-0.1,0.1,0.1,0,0,0c-0.4,0-1.1,0-1.2-0.5C-125.7,343.6-126.1,343.7-126,344"/>
	</g>
	<g>
		<defs>
			<polygon id="SVGID_74_" points="-171.7,283.5 -219.3,325.2 -157,396.3 -157,283.5 			"/>
		</defs>
		<clipPath id="SVGID_75_">
			<use xlink:href="#SVGID_74_"  style="overflow:visible;"/>
		</clipPath>
		<path class="st35" d="M-109.8,333.3c0.5,1.9,2.4,2.9,4.1,3.2c2.1,0.4,3.4-2.1,2.8-3.9c-0.5-1.5-2.2-2.3-3.7-2.2
			C-108.1,330.6-109.5,331.6-109.8,333.3c-0.1,0.2,0.4,0.2,0.4,0c0.2-1.4,1.4-2.1,2.7-2.4c1.3-0.3,2.7,0.4,3.3,1.6
			c0.8,1.5-0.4,4-2.3,3.6c-1.6-0.3-3.2-1.1-3.7-2.9C-109.4,332.9-109.8,333-109.8,333.3"/>
	</g>
	<g>
		<defs>
			<polygon id="SVGID_76_" points="-171.7,283.5 -219.3,325.2 -157,396.3 -157,283.5 			"/>
		</defs>
		<clipPath id="SVGID_77_">
			<use xlink:href="#SVGID_76_"  style="overflow:visible;"/>
		</clipPath>
		<path class="st36" d="M-107.8,332c-1,0.8-0.3,1.8,0.2,2.5c0.6,0.9,1.6,1.6,2.7,1.1c1.2-0.6,1.7-2.7,0.5-3.6
			c-0.6-0.4-1.1-0.5-1.8-0.6C-106.8,331.3-107.3,331.7-107.8,332c-0.2,0.2,0.1,0.5,0.3,0.3c0.4-0.3,0.8-0.6,1.3-0.5
			c0.4,0.1,0.7,0.1,1.1,0.2c1.4,0.5,1.2,2.6,0,3.2s-3.5-2-2.3-3C-107.3,332.2-107.6,331.9-107.8,332"/>
	</g>
</g>
<g>
	<g class="st2">
		<polygon id="SVGID_17_" class="st3" points="-196.5,331.7 -157,376.8 -157,297.1 		"/>
	</g>
	<g>
		<defs>
			<polygon id="SVGID_78_" points="-196.5,331.7 -157,376.8 -157,297.1 			"/>
		</defs>
		<clipPath id="SVGID_79_">
			<use xlink:href="#SVGID_78_"  style="overflow:visible;"/>
		</clipPath>
		<path class="st37" d="M-106.6,333.1c-0.5,0.5-0.6,1.1-0.1,1.6c0.1,0,0.1,0.1,0.2,0.1c-0.1-0.1,0,0,0.1,0.1
			c0.2,0.2,0.5,0.2,0.7,0.2c0.8,0,1.6-1.1,1-1.8c-0.2-0.3-0.6-0.3-0.9-0.4C-106,332.8-106.2,332.7-106.6,333.1
			c-0.2,0.2,0.1,0.5,0.3,0.3c0.3-0.2,0.4-0.1,0.7,0c0.2,0.1,0.5,0.1,0.6,0.2c0.3,0.3-0.1,0.8-0.4,1c-0.2,0.1-0.4,0.1-0.6,0.1
			c-0.2-0.1-0.2-0.1-0.4-0.3c-0.4-0.3-0.3-0.7,0-1C-106.1,333.2-106.4,332.9-106.6,333.1"/>
	</g>
	<g>
		<defs>
			<polygon id="SVGID_80_" points="-196.5,331.7 -157,376.8 -157,297.1 			"/>
		</defs>
		<clipPath id="SVGID_81_">
			<use xlink:href="#SVGID_80_"  style="overflow:visible;"/>
		</clipPath>
		<path class="st38" d="M-104.1,323.7c-1-1-2.4-1.8-3.8-1c-1.3,0.8-0.2,2.2,0.6,3c1.1,1,3.2,2.7,4.6,1.1c0.4-0.4,0-1-0.1-1.4
			C-102.9,324.8-103.7,324.2-104.1,323.7c-0.2-0.2-0.5,0.1-0.3,0.3c0.4,0.4,0.9,0.9,1.1,1.4c0.1,0.1,0.3,0.8,0.3,1s-0.4,0.4-0.5,0.4
			c-0.5,0.2-1.1,0.1-1.5,0c-0.7-0.2-1.3-0.8-1.9-1.3c-0.7-0.6-1.8-1.8-0.6-2.5c1.1-0.7,2.4,0.3,3.2,1
			C-104.2,324.2-103.9,323.9-104.1,323.7"/>
	</g>
	<g>
		<defs>
			<polygon id="SVGID_82_" points="-196.5,331.7 -157,376.8 -157,297.1 			"/>
		</defs>
		<clipPath id="SVGID_83_">
			<use xlink:href="#SVGID_82_"  style="overflow:visible;"/>
		</clipPath>
		<path class="st39" d="M-107,324.2c0.4,1.2,1.5,2.7,3,2.7c0.7,0,1.3-0.8,1.1-1.4c-0.1-0.6-0.9-1.2-1.3-1.6
			c-0.3-0.3-0.6-0.5-0.9-0.6c-0.4-0.2-1.1-0.5-1.5-0.1C-106.9,323.3-107.1,323.7-107,324.2c0.1,0.3,0.5,0.1,0.4-0.2
			c-0.2-0.7,0.6-0.7,1-0.6c0.3,0.1,0.6,0.3,0.9,0.4c0.4,0.3,1.6,1.4,1.4,2c-0.2,0.6-0.8,0.7-1.3,0.6c-1-0.3-1.7-1.4-2.1-2.4
			C-106.7,323.7-107,323.9-107,324.2"/>
	</g>
	<g>
		<defs>
			<polygon id="SVGID_84_" points="-196.5,331.7 -157,376.8 -157,297.1 			"/>
		</defs>
		<clipPath id="SVGID_85_">
			<use xlink:href="#SVGID_84_"  style="overflow:visible;"/>
		</clipPath>
		<path class="st40" d="M-105.3,323.7c-0.3,0.5,0,1,0.4,1.3c0.3,0.3,0.8,0.3,1-0.1c0.3-0.5,0.2-1.1-0.4-1.4c0.1,0,0.1,0.1,0,0
			c0,0-0.1,0-0.1-0.1c-0.1-0.1-0.2-0.1-0.3-0.1C-104.9,323.3-105.2,323.5-105.3,323.7c-0.2,0.2,0.2,0.5,0.4,0.2s0.4,0,0.5,0
			s0.1,0.1,0.2,0.1c0.2,0.2,0.1,0.5,0,0.6c-0.1,0.1-0.2,0.1-0.3,0c-0.1,0,0,0,0,0s0,0-0.1-0.1c-0.2-0.2-0.5-0.5-0.3-0.8
			C-104.8,323.7-105.2,323.5-105.3,323.7"/>
	</g>
</g>
<g>
	<g class="st2">
		<polygon id="SVGID_19_" class="st3" points="-171.7,283.5 -219.3,325.2 -157,396.3 -157,283.5 		"/>
	</g>
	<g>
		<defs>
			<polygon id="SVGID_86_" points="-171.7,283.5 -219.3,325.2 -157,396.3 -157,283.5 			"/>
		</defs>
		<clipPath id="SVGID_87_">
			<use xlink:href="#SVGID_86_"  style="overflow:visible;"/>
		</clipPath>
		<path class="st41" d="M-118.8,325.1c-0.7,0.2-1.3,0.7-1.2,1.4c0,1,1.1,1.7,2,1.6c-0.1,0,0.1,0,0.2,0c0.2,0,0.3-0.1,0.5-0.2
			c0.4-0.3,0.6-0.8,0.5-1.3C-116.9,325.5-117.8,324.9-118.8,325.1c-0.3,0.1-0.2,0.5,0.1,0.4c0.7-0.1,1.3,0.2,1.5,0.9
			c0.1,0.5,0,0.9-0.5,1.1c-0.1,0.1-0.3,0.1-0.4,0.1c-0.8,0.2-1.5-0.4-1.6-1.2c0-0.5,0.5-0.8,0.9-0.9
			C-118.5,325.5-118.5,325.1-118.8,325.1"/>
	</g>
	<g>
		<defs>
			<polygon id="SVGID_88_" points="-171.7,283.5 -219.3,325.2 -157,396.3 -157,283.5 			"/>
		</defs>
		<clipPath id="SVGID_89_">
			<use xlink:href="#SVGID_88_"  style="overflow:visible;"/>
		</clipPath>
		<path class="st42" d="M-145.9,334.9c-0.7,0.2-1.3,0.7-1.2,1.4c0,1,1.1,1.7,2,1.6c-0.1,0,0.1,0,0.2,0c0.2,0,0.3-0.1,0.5-0.2
			c0.4-0.3,0.6-0.8,0.5-1.3C-144.1,335.3-144.9,334.7-145.9,334.9c-0.3,0.1-0.2,0.5,0.1,0.4c0.7-0.1,1.3,0.2,1.5,0.9
			c0.1,0.5,0,0.9-0.5,1.1c-0.1,0.1-0.3,0.1-0.4,0.1c-0.8,0.2-1.5-0.4-1.6-1.2c0-0.5,0.5-0.8,0.9-0.9
			C-145.6,335.3-145.7,334.9-145.9,334.9"/>
	</g>
	<g>
		<defs>
			<polygon id="SVGID_90_" points="-171.7,283.5 -219.3,325.2 -157,396.3 -157,283.5 			"/>
		</defs>
		<clipPath id="SVGID_91_">
			<use xlink:href="#SVGID_90_"  style="overflow:visible;"/>
		</clipPath>
		<path class="st43" d="M-153.2,326c-0.7,0.2-1.3,0.7-1.2,1.4c0,1,1.1,1.7,2,1.6c-0.1,0,0.1,0,0.2,0c0.2,0,0.3-0.1,0.5-0.2
			c0.4-0.3,0.6-0.8,0.5-1.3C-151.4,326.4-152.2,325.8-153.2,326c-0.3,0.1-0.2,0.5,0.1,0.4c0.7-0.1,1.3,0.2,1.5,0.9
			c0.1,0.5,0,0.9-0.5,1.1c-0.1,0.1-0.3,0.1-0.4,0.1c-0.8,0.2-1.5-0.4-1.6-1.2c0-0.5,0.5-0.8,0.9-0.9
			C-152.9,326.3-153,325.9-153.2,326"/>
	</g>
	<g>
		<defs>
			<polygon id="SVGID_92_" points="-171.7,283.5 -219.3,325.2 -157,396.3 -157,283.5 			"/>
		</defs>
		<clipPath id="SVGID_93_">
			<use xlink:href="#SVGID_92_"  style="overflow:visible;"/>
		</clipPath>
		<path class="st44" d="M-140.4,330.1c-1,0.3-1.9,1.1-1.7,2.2c0.1,0.7,0.6,1.5,1.2,1.8c0.2,0.1,0.4,0.1,0.6,0.1c0.1,0,0.3,0,0.3,0
			c0.6,0,1.1-0.1,1.6-0.5c0.7-0.5,0.8-1.5,0.5-2.3C-138.2,330.3-139.4,329.8-140.4,330.1c-0.3,0.1-0.2,0.5,0.1,0.4
			c0.7-0.1,1.4,0.1,1.8,0.6c0.6,0.7,0.5,1.9-0.3,2.4c-0.3,0.2-0.8,0.3-1.1,0.2c-0.2,0-0.3,0-0.5,0c-0.7-0.1-1-0.8-1.2-1.4
			c-0.3-0.9,0.6-1.6,1.4-1.8C-140.1,330.4-140.2,330-140.4,330.1"/>
	</g>
	<g>
		<defs>
			<polygon id="SVGID_94_" points="-171.7,283.5 -219.3,325.2 -157,396.3 -157,283.5 			"/>
		</defs>
		<clipPath id="SVGID_95_">
			<use xlink:href="#SVGID_94_"  style="overflow:visible;"/>
		</clipPath>
		<path class="st45" d="M-157.8,322.9c-1,0.3-2.1,1.2-2,2.3c0.1,0.8,0.6,1.8,1.4,2.1c0.4,0.2,0.9,0.1,1.1,0.1
			c0.7,0.1,1.4-0.1,1.9-0.6c0.8-0.7,0.8-1.8,0.5-2.7C-155.4,323.2-156.7,322.7-157.8,322.9c-0.3,0.1-0.2,0.5,0,0.5
			c0.8-0.2,1.6,0.1,2.1,0.6c0.8,0.8,0.7,2.2-0.3,2.9c-0.4,0.3-0.9,0.3-1.4,0.3c-0.2,0-0.4,0-0.7,0c-0.8-0.2-1.2-1-1.4-1.8
			c-0.2-1,0.8-1.8,1.6-2C-157.5,323.3-157.6,322.9-157.8,322.9"/>
	</g>
	<g>
		<defs>
			<polygon id="SVGID_96_" points="-171.7,283.5 -219.3,325.2 -157,396.3 -157,283.5 			"/>
		</defs>
		<clipPath id="SVGID_97_">
			<use xlink:href="#SVGID_96_"  style="overflow:visible;"/>
		</clipPath>
		<path class="st46" d="M-152.3,309.8c-0.7,0.2-1.3,0.7-1.2,1.4c0,1,1.1,1.7,2,1.6c-0.1,0,0.1,0,0.2,0c0.2,0,0.3-0.1,0.5-0.2
			c0.4-0.3,0.6-0.8,0.5-1.3C-150.4,310.2-151.3,309.6-152.3,309.8c-0.3,0.1-0.2,0.5,0.1,0.4c0.7-0.1,1.3,0.2,1.5,0.9
			c0.1,0.5,0,0.9-0.5,1.1c-0.1,0.1-0.3,0.1-0.4,0.1c-0.8,0.2-1.5-0.4-1.6-1.2c0-0.5,0.5-0.8,0.9-0.9
			C-152,310.2-152,309.8-152.3,309.8"/>
	</g>
	<g>
		<defs>
			<polygon id="SVGID_98_" points="-171.7,283.5 -219.3,325.2 -157,396.3 -157,283.5 			"/>
		</defs>
		<clipPath id="SVGID_99_">
			<use xlink:href="#SVGID_98_"  style="overflow:visible;"/>
		</clipPath>
		<path class="st47" d="M-133.2,317.9c-0.5,0.1-1,0.5-1,1.1c0,0.8,0.8,1.4,1.6,1.2c-0.1,0,0.1,0,0.1,0c0.1,0,0.3-0.1,0.4-0.2
			c0.3-0.2,0.5-0.7,0.4-1.1C-131.8,318.2-132.5,317.7-133.2,317.9c-0.3,0.1-0.2,0.5,0.1,0.4c0.5-0.1,1,0.1,1.1,0.7
			c0.1,0.3,0,0.7-0.3,0.8c-0.1,0.1-0.2,0.1-0.3,0.1c-0.6,0.1-1.1-0.3-1.1-0.9c0-0.4,0.3-0.6,0.7-0.7
			C-132.9,318.3-133,317.9-133.2,317.9"/>
	</g>
	<g>
		<defs>
			<polygon id="SVGID_100_" points="-171.7,283.5 -219.3,325.2 -157,396.3 -157,283.5 			"/>
		</defs>
		<clipPath id="SVGID_101_">
			<use xlink:href="#SVGID_100_"  style="overflow:visible;"/>
		</clipPath>
		<path class="st48" d="M-129.7,314.3c-1.1,0.3-1.9,1.1-1.8,2.3c0.1,0.7,0.6,1.5,1.3,1.8c0.3,0.1,0.8,0.1,1,0.1
			c0.6,0,1.2-0.1,1.7-0.5c0.8-0.6,0.8-1.6,0.5-2.4C-127.4,314.6-128.6,314.1-129.7,314.3c-0.3,0.1-0.2,0.5,0.1,0.4
			c0.7-0.2,1.4,0.1,1.9,0.6c0.6,0.8,0.5,2-0.3,2.5c-0.3,0.2-0.8,0.3-1.2,0.2c-0.2,0-0.3,0-0.5,0c-0.7-0.1-1.1-0.8-1.3-1.4
			c-0.3-1,0.6-1.7,1.4-1.9C-129.4,314.7-129.4,314.3-129.7,314.3"/>
	</g>
	<g>
		<defs>
			<polygon id="SVGID_102_" points="-171.7,283.5 -219.3,325.2 -157,396.3 -157,283.5 			"/>
		</defs>
		<clipPath id="SVGID_103_">
			<use xlink:href="#SVGID_102_"  style="overflow:visible;"/>
		</clipPath>
		<path class="st49" d="M-139.7,334.9c-0.7,0.9,0.8,2.7,1.8,1.9c0.7-0.6,0.6-1.6-0.2-2.1c0,0-0.3-0.1-0.2-0.1
			c-0.1-0.1-0.2-0.1-0.3-0.1C-139,334.4-139.4,334.6-139.7,334.9c-0.2,0.1,0.1,0.5,0.3,0.3c0.4-0.3,0.6-0.3,1-0.1
			c0.6,0.2,0.8,1.1,0.2,1.5c-0.2,0.1-0.4,0.1-0.6,0c0,0-0.1-0.1,0,0l-0.1-0.1c-0.3-0.3-0.8-0.9-0.4-1.3
			C-139.2,334.9-139.5,334.7-139.7,334.9"/>
	</g>
	<g>
		<defs>
			<polygon id="SVGID_104_" points="-171.7,283.5 -219.3,325.2 -157,396.3 -157,283.5 			"/>
		</defs>
		<clipPath id="SVGID_105_">
			<use xlink:href="#SVGID_104_"  style="overflow:visible;"/>
		</clipPath>
		<path class="st50" d="M-124.8,308.7c-0.8,0.2-1.6,0.8-1.5,1.7c0,1.3,1.3,2.1,2.5,1.9c0.1,0,0.6-0.1,0.8-0.3c0.5-0.4,0.7-1,0.6-1.6
			C-122.5,309.2-123.5,308.4-124.8,308.7c-0.3,0.1-0.2,0.5,0.1,0.4c0.9-0.2,1.7,0.3,1.9,1.2c0.2,0.9-0.3,1.5-1.1,1.6
			c-1,0.2-2-0.6-2-1.6c0-0.6,0.6-1.1,1.2-1.2C-124.4,309-124.5,308.6-124.8,308.7"/>
	</g>
	<g>
		<defs>
			<polygon id="SVGID_106_" points="-171.7,283.5 -219.3,325.2 -157,396.3 -157,283.5 			"/>
		</defs>
		<clipPath id="SVGID_107_">
			<use xlink:href="#SVGID_106_"  style="overflow:visible;"/>
		</clipPath>
		<path class="st51" d="M-129,308.4c-0.4,0.1-0.8,0.4-0.8,0.9c0,0.7,0.7,1.1,1.3,1c-0.1,0,0.1,0,0.1,0c0.1,0,0.2-0.1,0.3-0.1
			c0.3-0.2,0.4-0.5,0.3-0.9C-127.8,308.6-128.3,308.3-129,308.4c-0.3,0.1-0.2,0.5,0.1,0.4c0.4-0.1,0.7,0.1,0.8,0.5
			c0,0.2,0,0.5-0.2,0.6h-0.1c-0.1,0,0.1,0-0.1,0c-0.4,0.1-0.8-0.2-0.8-0.6c0-0.3,0.3-0.4,0.5-0.5
			C-128.6,308.7-128.7,308.3-129,308.4"/>
	</g>
	<g>
		<defs>
			<polygon id="SVGID_108_" points="-171.7,283.5 -219.3,325.2 -157,396.3 -157,283.5 			"/>
		</defs>
		<clipPath id="SVGID_109_">
			<use xlink:href="#SVGID_108_"  style="overflow:visible;"/>
		</clipPath>
		<path class="st52" d="M-102.3,337.2c0.5,0.3,1,0.3,1.5,0.3c0.6,0,0.9-0.5,1.2-1c0.4-0.6,0.7-1.5,0.6-2.2c0-0.2-0.3-0.2-0.4-0.1
			c-0.8,1-1.7,2.1-2.9,2.7c-0.2,0.1-0.1,0.5,0.2,0.4c1.3-0.6,2.3-1.7,3.1-2.8c-0.1,0-0.3-0.1-0.4-0.1c0.1,1.4-1.1,3.5-2.7,2.5
			C-102.3,336.7-102.5,337.1-102.3,337.2"/>
	</g>
</g>
<g>
	<g class="st2">
		<polygon id="SVGID_21_" class="st3" points="-194.8,332 -155.3,377.1 -155.3,297.4 		"/>
	</g>
	<g>
		<defs>
			<polygon id="SVGID_110_" points="-194.8,332 -155.3,377.1 -155.3,297.4 			"/>
		</defs>
		<clipPath id="SVGID_111_">
			<use xlink:href="#SVGID_110_"  style="overflow:visible;"/>
		</clipPath>
		<path class="st53" d="M-115.6,330.1c-1.9,1.5-1.6,4.4-0.8,6.3c0.5,1.2,1.3,2.4,2.3,3.2c0.4,0.3,0.7,0.5,1.1,0.7
			c1.4,0.6,2.9,0.9,4.4,0.8c1.6,0,3,0.1,4.6-0.4c0.6-0.2,1.2-0.4,1.9-0.6c0.7-0.3,1.4-0.7,2.1-1.2c0.7-0.5,1.4-1.1,1.9-1.7
			c0.3-0.5,0.5-1.1,0.7-1.7c0.1-0.2,0.1-0.4,0.1-0.7c0-0.1,0.1-0.4,0-0.2c0.5-0.7,0.7-1.6,0.6-2.4c-0.1-0.7-0.7-1.3-1.1-1.8
			c-0.5-0.6-1-1.2-1.5-1.8c-0.6-0.7-1.4-1.3-1.8-2.3c-0.1-0.3-0.5-0.1-0.4,0.2c0.3,1,1.1,1.6,1.8,2.3c0.5,0.5,0.9,1.1,1.4,1.6
			c0.6,0.8,1.3,1.5,1.1,2.5c-0.1,0.5-0.3,0.9-0.5,1.3c-0.1,0.2-0.1,0.5-0.1,0.7c-0.1,0.7-0.4,1.5-0.8,2.1c-0.3,0.4-0.7,0.6-1,0.9
			c-0.4,0.4-0.9,0.8-1.5,1.1c-2,1.2-4.5,1.7-6.7,1.7c-2.1,0-4.6-0.2-6.3-1.5c-1.6-1.3-2.7-3.6-2.7-5.6c0-1.1,0.4-2.4,1.3-3.1
			C-115.1,330.2-115.4,329.9-115.6,330.1"/>
	</g>
	<g>
		<defs>
			<polygon id="SVGID_112_" points="-194.8,332 -155.3,377.1 -155.3,297.4 			"/>
		</defs>
		<clipPath id="SVGID_113_">
			<use xlink:href="#SVGID_112_"  style="overflow:visible;"/>
		</clipPath>
		<path class="st54" d="M-168.3,334.1c0,0.7,0.3,1.5,0.6,2.2c0.9,2.5,2.5,4.7,4.1,6.9c2.2,2.9,4.6,5.7,7.6,7.9
			c1.4,1.1,2.9,2,4.6,2.7c0.3,0.1,0.5,0.2,0.8,0c1.1-0.7,2.3-1.5,3.1-2.5c-0.1,0-0.2,0-0.4,0c0.2,0.7-0.7,1.7-1.1,2.2
			c-0.4,0.4-0.7,0.9-1.1,1.2c-0.1,0.1-0.1,0.3,0.1,0.4c4.9,2,10.1,3.6,15.3,4.4c5.1,0.8,10.4-0.8,14.9-3.3
			c5.4-3.1,9.7-7.7,13.4-12.6c0.2-0.2-0.1-0.4-0.3-0.3c-6.2,4.5-12.7,9-20.4,10.1c-3.5,0.5-7,0.4-10.5-0.4c-3.4-0.7-6.7-1.8-9.8-3.3
			c-2.4-1.2-4.7-2.8-7-4.2c-2.8-1.7-5.3-3.8-7.7-6c-1.9-1.7-3.8-3.5-5.6-5.4c-0.2-0.2-0.5,0.1-0.3,0.3c3.2,3.4,6.7,6.7,10.5,9.5
			c2.3,1.8,4.9,3.3,7.4,4.8c2.4,1.5,4.9,2.6,7.5,3.5c3.6,1.2,7.3,2,11.1,2c2.7,0,5.3-0.3,7.9-1c1.7-0.5,3.3-1,5-1.8
			c4.3-2.1,8.4-4.8,12.2-7.7c-0.1-0.1-0.2-0.2-0.3-0.3c-5.4,7.2-12.2,13.6-21.2,15.6c-2.1,0.5-4.3,0.6-6.4,0.2
			c-2.5-0.4-4.9-1-7.3-1.7c-2.7-0.8-5.5-1.7-8.1-2.8c0,0.1,0,0.2,0.1,0.4c0.5-0.5,1-1.1,1.5-1.7c0.4-0.6,1.1-1.5,0.9-2.3
			c-0.1-0.2-0.3-0.1-0.4,0c-0.8,1-2,1.8-3.1,2.5c0.1,0,0.2,0,0,0c-0.2-0.1-0.4-0.1-0.6-0.2c-1.9-0.8-3.7-2.1-5.2-3.4
			c-3-2.5-5.5-5.6-7.7-8.8c-1.2-1.8-2.4-3.8-3-5.9c-0.1-0.3-0.2-0.8-0.2-1C-167.9,333.9-168.3,333.8-168.3,334.1"/>
	</g>
</g>
<path class="st0" d="M-170,330.4c1.3-2.2,2.7-4.2,4.4-6.1c2-2.1,4.2-3.9,6.5-5.6c3.1-2.2,6.5-4.4,10-5.9c2.7-1.2,5.6-1.9,8.6-2.2
	c4.9-0.4,9.9,0.4,14.5,2c2.1,0.7,4.2,1.6,6,2.7c1.9,1.1,3.7,2.3,5.6,3.4c1.2,0.7,2.5,1.5,3.7,2.2c0.4,0.2,1.4,1,1.8,0.8
	c0.1,0,0.1-0.2,0.1-0.3c-1.5-3.3-3.7-6.1-6.2-8.7c-0.7-0.8-1.5-1.5-2.3-2.2c-0.4-0.3-0.5-0.6-1-0.9c-0.2-0.1-0.5-0.1-0.7,0.1
	c-0.1,0.2-0.1,0.4-0.1,0.6c0,0.5-0.1,1.1-0.1,1.6c-0.1,0.5-0.1,1.1-0.4,1.5l-0.1,0.1c0.1,0,0.1,0.1,0.1,0c0-0.1-0.1-0.2-0.1-0.3
	c-0.3-1-0.4-2-0.6-3.1c-0.1-0.5-0.1-1-0.4-1.4c-0.6-0.7-1.6-1.1-2.5-1.4c-1.6-0.7-3.3-1.1-4.9-1.5c-1.9-0.4-3.8-0.6-5.6-0.9
	c-1.9-0.3-3.8-0.2-5.7-0.1c-1.7,0.1-3.4,0.3-5.2,0.5c-0.4,0.1-0.8,0.1-1.2,0.2c-0.2,0-0.1,0-0.2,0c-0.8,0.1-1.6,0.3-2.3,0.5
	c-5.3,1.7-10,5.5-14,9.3c-3.5,3.3-7.2,7.7-8,12.6c-0.1,0.7-0.2,1.5,0,2.1c0.1,0.3,0.5,0.2,0.4-0.1c-0.1-0.6-0.1-1.2,0-1.8
	c0.2-1.8,1-3.6,1.9-5.2c1.7-3,4-5.6,6.5-7.9c2.6-2.4,5.4-4.7,8.5-6.5c2.2-1.3,4.7-2.4,7.1-2.8c2.8-0.5,5.8-0.7,8.6-0.8
	c0.9,0,1.8,0,2.7,0.1c0.9,0.1,1.8,0.3,2.7,0.4c2.1,0.2,4.1,0.6,6.2,1.2c1.4,0.4,2.8,0.9,4,1.6c0.6,0.3,0.9,0.6,1,1.2
	c0.1,0.5,0.4,4.4,1.2,4.2c0.6-0.2,0.7-1.2,0.7-1.7c0-0.3,0.2-2.4,0.3-2.4c0.3,0.1,0.4,0.3,0.6,0.5c1.7,1.4,3.2,3,4.6,4.6
	c1.7,2,3.1,4.1,4.2,6.4c0-0.1,0.1-0.2,0.1-0.3c0.1,0-0.2-0.1-0.3-0.2c-0.3-0.1-0.6-0.3-0.9-0.5c-0.9-0.5-1.7-1-2.6-1.5
	c-1.9-1.1-3.7-2.2-5.5-3.3c-1.4-0.9-2.9-1.7-4.4-2.4c-9-4-19.7-4.9-28.5-0.1c-4.4,2.4-8.7,5.1-12.4,8.5c-1.3,1.1-2.4,2.4-3.5,3.7
	c-1.2,1.4-2.1,3-3.1,4.6C-170.5,330.4-170.2,330.6-170,330.4"/>
</svg>
