<?xml version="1.0" encoding="utf-8"?>
<!-- Generator: Adobe Illustrator 19.1.0, SVG Export Plug-In . SVG Version: 6.00 Build 0)  -->
<svg version="1.1" id="Layer_1" xmlns="http://www.w3.org/2000/svg" xmlns:xlink="http://www.w3.org/1999/xlink" x="0px" y="0px"
	 viewBox="0 0 194 104" style="enable-background:new 0 0 194 104;" xml:space="preserve">
<style type="text/css">
	.st0{fill-rule:evenodd;clip-rule:evenodd;}
</style>
<g>
	<path class="st0" d="M62.4,94c-0.3-1.2-0.5-2.5-0.8-3.9h-6.9c-0.8,1.3-1.6,2.6-2.4,3.9H51c2.6-4.2,5.3-8.4,8.3-12.5h2.5
		c0.6,4.2,1.4,9.1,2.3,12.5H62.4L62.4,94z M59.9,82.4c-1.6,2.2-3,4.4-4.4,6.6h6c-0.4-2.1-0.7-4.4-0.9-6.6H59.9L59.9,82.4z
		 M59.1,78.7c-0.6,0-0.9,0.1-1,0.7c-0.2,0.7,0,0.8,0.7,0.8c0.6,0,0.8-0.1,1-0.8C59.9,78.8,59.8,78.7,59.1,78.7L59.1,78.7z M63,78.7
		c-0.6,0-0.9,0.1-1,0.7c-0.2,0.7,0,0.8,0.7,0.8c0.6,0,0.8-0.1,1-0.8C63.8,78.8,63.6,78.7,63,78.7L63,78.7z M68.6,86
		c0.8-0.2,1.7-0.3,2.6-0.3c2.3,0,2.8,0.6,2.1,3.3L72.2,94h1.3l1.2-5.1c0.8-3.3-0.1-4.2-3-4.2c-1.2,0-3.1,0.3-4.3,0.7l-2,8.6h1.3
		L68.6,86L68.6,86z M86.8,85.3c-1-0.5-2.7-0.7-3.9-0.7c-3.2,0-4.9,1-5.8,4.8c-0.9,3.7,0.3,4.8,3.5,4.8c1.5,0,2.4-0.4,3-0.8
		c-0.6,2.4-2.1,3-4.4,3c-0.7,0-2.2-0.2-2.8-0.5l-0.6,1.1c0.7,0.3,2.3,0.5,3.2,0.5c3.2,0,5.3-1,6.1-4.3L86.8,85.3L86.8,85.3z
		 M82.6,85.7c1,0,2,0.1,2.7,0.4l-1.4,5.7c-0.2,0.8-1.6,1.3-3.1,1.3c-2.4,0-3-0.7-2.3-3.7C79.3,86.3,80.2,85.7,82.6,85.7L82.6,85.7z
		 M94,84.6c-3,0-4.9,1.2-5.7,4.8c-0.9,3.7,0.5,4.8,3.6,4.8c0.8,0,2.3-0.2,3.5-0.5l0-1.1c-0.9,0.3-2.3,0.5-3.1,0.5
		c-2.4,0-3.3-0.6-2.6-3.6H97C97.9,85.7,96.9,84.6,94,84.6L94,84.6z M93.7,85.7c1.9,0,2.4,0.5,2,2.8H90
		C90.6,86.3,91.6,85.7,93.7,85.7L93.7,85.7z M102.5,81h-1.3l-2.6,10.7c-0.3,1.3,0,1.9,0.6,2.6l1.2-0.8c-0.6-0.7-0.7-1.1-0.5-2
		L102.5,81L102.5,81z M108.8,84.6c-1.3,0-2.6,0.4-3.2,0.7l1.1-4.4h-1.3l-3.1,13h1.3l1.7-6.9c0.2-0.8,1.7-1.3,3.1-1.3
		c2,0,2.5,0.6,1.9,3.3l-1.2,4.9h1.3l1.2-5.1C112.4,85.5,111.6,84.6,108.8,84.6L108.8,84.6z M117.4,94.2c3.2,0,4.9-1.1,5.8-4.8
		c0.9-3.7-0.3-4.8-3.5-4.8c-3.2,0-4.9,1-5.8,4.8C113.1,93.1,114.3,94.2,117.4,94.2L117.4,94.2z M119.4,85.7c2.4,0,3.1,0.6,2.3,3.7
		c-0.7,3-1.7,3.7-4.1,3.7c-2.4,0-3-0.8-2.3-3.7C116.1,86.3,117.1,85.7,119.4,85.7L119.4,85.7z M129,81h-1.3l-2.6,10.7
		c-0.3,1.3,0,1.9,0.6,2.6l1.2-0.8c-0.6-0.7-0.7-1.1-0.5-2L129,81L129,81z M131.9,86c0.7-0.2,1.7-0.3,2.5-0.3c2.1,0,2.6,0.6,2,3.3
		l-1.2,4.9h1.3l1.2-5.1c0.3-1.2,0.3-2.1,0.2-2.7c1.1-0.3,2.2-0.4,2.9-0.4c2.1,0,2.6,0.6,2,3.3l-1.2,4.9h1.3l1.2-5.1
		c0.8-3.3,0.1-4.2-2.8-4.2c-1.2,0-2.7,0.3-3.9,0.6c-0.5-0.4-1.3-0.6-2.6-0.6c-1.2,0-2.9,0.3-4.1,0.7l-2,8.6h1.3L131.9,86L131.9,86z"
		/>
	<path class="st0" d="M16.2,70.8H14c-1.9-3.4-4-7-6.2-10.4v10.4H6V58.1h2.4c2.1,3.2,4.1,6.6,5.9,9.9v-9.9h1.9V70.8L16.2,70.8z"/>
	<path class="st0" d="M25.8,70.3c-1.2,0.4-2.7,0.7-4,0.7C19,71.1,18,70.3,18,68c0-2.6,1.5-3,3.6-3c0.9,0,1.6,0.1,2.4,0.3
		c0-1.9-0.4-2.4-2.4-2.4c-1,0-2,0.1-2.7,0.4l-0.4-1.5c0.8-0.2,2-0.4,3.3-0.4c2.7,0,4,0.8,4,3.6V70.3L25.8,70.3z M24.1,66.5
		c-0.6-0.1-1.4-0.1-2.1-0.1c-1.6,0-2.1,0.1-2.1,1.6c0,1.5,0.4,1.8,2,1.8c0.8,0,1.6-0.1,2.2-0.4V66.5L24.1,66.5z"/>
	<path class="st0" d="M30.1,63.1v4.5c0,1.4,0.4,1.9,1.6,1.9c0.6,0,1.2-0.1,1.7-0.3l0.3,1.4c-0.6,0.2-1.5,0.4-2.2,0.4
		c-2.1,0-3-0.6-3-3.4v-4.5h-1.6v-1.6h1.6v-1.7l1.7-0.7v2.4h3.2v1.6H30.1L30.1,63.1z"/>
	<path class="st0" d="M40.7,61.6h1.7v8.7c-1.1,0.5-2.8,0.8-4.1,0.8c-2.6,0-3.7-1-3.7-4.3v-5.2h1.7v5c0,2.4,0.5,3,2.3,3
		c0.7,0,1.4-0.1,2-0.3V61.6L40.7,61.6z"/>
	<path class="st0" d="M44.4,61.6h1.7v0.7c0.3-0.5,1.2-0.9,2.4-0.9c0.3,0,0.6,0,0.9,0.1v1.7C49.2,63,48.8,63,48.4,63
		c-1.2,0-2.3,0.4-2.3,1.1v6.7h-1.7V61.6L44.4,61.6z"/>
	<path class="st0" d="M56.8,63.3C56,63,55,62.8,54.1,62.8c-1.3,0-2,0.1-2,1.4c0,0.8,0.5,1.1,2.1,1.2c2.3,0.2,3.3,0.9,3.3,2.7
		c0,2.3-1.3,3-3.7,3c-0.9,0-2.4-0.2-3.3-0.5l0.4-1.4c0.6,0.3,1.9,0.5,2.9,0.5c1.3,0,2-0.2,2-1.4c0-0.8-0.4-1.2-2.2-1.4
		c-2.1-0.1-3.2-0.7-3.2-2.5c0-2.3,1.4-3,3.7-3c0.9,0,2.2,0.1,3.1,0.4L56.8,63.3L56.8,63.3z"/>
	<path class="st0" d="M60.7,70.8H59V57.7h1.7V70.8L60.7,70.8z M65,70.8c-2.3-3-3.7-4.6-4.2-4.8c0.6-0.4,1.9-1.9,4-4.4h2.1
		c-1.9,2.4-3.4,3.8-3.9,4.2c0.5,0.3,1.9,2,4.2,5H65L65,70.8z"/>
	<path class="st0" d="M67.3,61.6h1.9c0.9,2.2,1.9,5,2.6,7.6c0.9-2.5,1.9-5.1,2.6-7.6h1.7c-0.9,3.2-2.1,6.3-3.5,9.4
		c-0.4,1.1-1,2.4-1.5,3.3h-1.9c0.4-0.9,1-2.1,1.5-3.1C69.8,68,68.6,64.2,67.3,61.6L67.3,61.6z"/>
	<path class="st0" d="M84.8,70.3c-1,0.4-2.7,0.7-3.8,0.7c-3,0-4.3-1.1-4.3-4.8c0-3.8,1.4-4.9,4.1-4.9c1.2,0,1.8,0.3,2.3,0.6v-4.2
		h1.7V70.3L84.8,70.3z M83.1,63.9c0-0.7-1-1.1-2.1-1.1c-1.9,0-2.4,0.6-2.4,3.3c0,2.8,0.6,3.4,2.4,3.4c0.6,0,1.5-0.1,2.1-0.4V63.9
		L83.1,63.9z"/>
	<path class="st0" d="M94.7,70.3c-1,0.4-2.7,0.7-3.9,0.7c-3,0-4.3-1.1-4.3-4.8c0-3.8,1.4-4.9,4.1-4.9c1.2,0,1.9,0.3,2.4,0.6v-4.2
		h1.7V70.3L94.7,70.3z M93,63.9c0-0.7-1-1.1-2.2-1.1c-1.9,0-2.5,0.6-2.5,3.3c0,2.8,0.6,3.4,2.5,3.4c0.7,0,1.6-0.1,2.2-0.4V63.9
		L93,63.9z"/>
	<path class="st0" d="M102.7,63.3c-0.8-0.3-1.8-0.5-2.7-0.5c-1.3,0-1.9,0.1-1.9,1.4c0,0.8,0.5,1.1,2.1,1.2c2.3,0.2,3.3,0.9,3.3,2.7
		c0,2.3-1.4,3-3.7,3c-1,0-2.4-0.2-3.3-0.5l0.4-1.4c0.7,0.3,1.9,0.5,2.9,0.5c1.4,0,2-0.2,2-1.4c0-0.8-0.4-1.2-2.1-1.4
		c-2.2-0.1-3.3-0.7-3.3-2.5c0-2.3,1.4-3,3.8-3c0.9,0,2.1,0.1,3.1,0.4L102.7,63.3L102.7,63.3z"/>
	<path class="st0" d="M107.4,61.6h3.2v1.6h-3.2v7.6h-1.7v-7.6h-1.6v-1.6h1.6v-0.7c0-2.8,1.6-3.2,3.4-3.2c0.7,0,1.5,0.1,2.2,0.4
		l-0.4,1.4c-0.4-0.1-1.2-0.3-1.7-0.3c-0.9,0-1.7,0.3-1.7,1.7V61.6L107.4,61.6z"/>
	<path class="st0" d="M111.3,66.2c0-3.8,1.4-4.8,4.2-4.8c3,0,4.3,1,4.3,4.8c0,3.7-1.4,4.9-4.3,4.9C112.7,71.1,111.3,69.9,111.3,66.2
		L111.3,66.2z M114.7,59.5c0,0.9-0.3,0.9-0.9,0.9c-0.7,0-0.9-0.1-0.9-0.9c0-0.7,0.2-0.9,0.9-0.9C114.4,58.6,114.7,58.7,114.7,59.5
		L114.7,59.5z M113.1,66.2c0,2.8,0.6,3.5,2.5,3.5c1.9,0,2.5-0.6,2.5-3.5c0-2.9-0.6-3.4-2.5-3.4C113.7,62.8,113.1,63.3,113.1,66.2V67
		V66.2L113.1,66.2z M117.5,60.4c-0.7,0-0.9-0.1-0.9-0.9c0-0.7,0.2-0.9,0.9-0.9c0.6,0,0.9,0.3,0.9,1
		C118.3,59.8,118.4,60.4,117.5,60.4L117.5,60.4z M113.1,65v1.2V65z"/>
	<path class="st0" d="M121.6,61.6h1.7v0.7c0.3-0.5,1.2-0.9,2.4-0.9c0.3,0,0.6,0,0.9,0.1v1.7c-0.3-0.1-0.7-0.1-1.1-0.1
		c-1.2,0-2.3,0.4-2.3,1.1v6.7h-1.7V61.6L121.6,61.6z"/>
	<path class="st0" d="M135,70.6c-0.9,0.3-2.2,0.5-3.1,0.5c-2.7,0-4.4-1.2-4.4-4.9c0-3.7,1.5-4.8,4.2-4.8c2.8,0,4,1,4,5.2h-6.3
		c0.1,2.5,0.9,3,2.8,3c0.6,0,1.9-0.2,2.6-0.4L135,70.6L135,70.6z M129.3,65.2h4.5c-0.1-1.9-0.6-2.4-2.2-2.4
		C130.1,62.8,129.5,63.3,129.3,65.2L129.3,65.2z"/>
	<path class="st0" d="M138.8,70.8H137v-8.7c1.1-0.4,2.7-0.7,4-0.7c2.7,0,3.7,0.9,3.7,4.3v5.1h-1.7v-4.9c0-2.4-0.5-3-2.4-3
		c-0.7,0-1.3,0.1-1.9,0.2V70.8L138.8,70.8z"/>
	<path class="st0" d="M148.6,58.8c0,0.9-0.3,1-1,1c-0.8,0-1.1-0.1-1.1-1c0-0.8,0.3-0.9,1.1-0.9C148.3,57.9,148.6,58,148.6,58.8
		L148.6,58.8z M148.3,70.8h-1.7v-9.2h1.7V70.8L148.3,70.8z"/>
	<path class="st0" d="M152,70.8h-1.7v-8.7c1.1-0.4,2.8-0.7,4-0.7c2.7,0,3.7,0.9,3.7,4.3v5.1h-1.7v-4.9c0-2.4-0.5-3-2.3-3
		c-0.8,0-1.4,0.1-2,0.2V70.8L152,70.8z"/>
	<path class="st0" d="M163.7,71.1c-2.7,0-4-1.1-4-4.9c0-3.7,1.4-4.8,4.3-4.8c1.2,0,2.9,0.3,3.9,0.6v8.1c0,3.5-1.9,4.4-4.8,4.4
		c-0.9,0-2.4-0.3-3.1-0.6l0.4-1.4c0.8,0.3,1.9,0.5,2.7,0.5c1.9,0,3-0.6,3-2.7C165.6,70.7,164.9,71.1,163.7,71.1L163.7,71.1z
		 M166.1,63.1c-0.6-0.2-1.4-0.3-2.2-0.3c-1.9,0-2.4,0.4-2.4,3.3c0,2.7,0.6,3.4,2.4,3.4c1.2,0,2.2-0.4,2.2-1.2V63.1L166.1,63.1z"/>
	<path class="st0" d="M177.1,70.6c-1,0.3-2.3,0.5-3.2,0.5c-2.7,0-4.4-1.2-4.4-4.9c0-3.7,1.5-4.8,4.2-4.8c2.7,0,4,1,3.9,5.2h-6.3
		c0.1,2.5,0.9,3,2.8,3c0.6,0,1.9-0.2,2.6-0.4L177.1,70.6L177.1,70.6z M171.4,65.2h4.5c-0.1-1.9-0.6-2.4-2.1-2.4
		C172.1,62.8,171.5,63.3,171.4,65.2L171.4,65.2z"/>
	<path class="st0" d="M180.8,70.8h-1.7v-8.7c1.1-0.4,2.7-0.7,4-0.7c2.7,0,3.7,0.9,3.7,4.3v5.1h-1.7v-4.9c0-2.4-0.5-3-2.4-3
		c-0.7,0-1.3,0.1-1.9,0.2V70.8L180.8,70.8z"/>
	<path class="st0" d="M108.1,31.5c0.6-0.8,3.5-0.6,3.5-0.6c1.7,0,1.8-1.2,1.4-2c-0.4-0.8-1.4-2.5-3.3-4.2c-2.2-1.9-4.7-3.5-6.6-4.5
		c-1.9-0.9-4.7-2.3-6.8-3.3c-2.2-0.9-5.6-2.4-7.6-3c-2-0.6-2.3-0.8-2.5-0.8c-0.2-0.1-0.4,0.1-0.2,0.2c0.3,0.3,3.9,3.2,5.1,4.2
		c1.2,1,2.6,2.4,3.5,3.4c0.7,0.8,1.4,1.5,1.5,1.8c0,0,0,0.1-0.1,0.1c-0.6,0.4-3.1,1.7-3.1,1.7c-0.6,0.4-3.5-0.6-5.7-1.2
		c-2.2-0.6-7.8-2.7-8.6-2.9c-0.7-0.1-1.3-0.4-2.2,0.9c-0.9,1.2-0.7,1.9-0.1,2.4c0.4,0.3,1.9,1.3,4.1,2.7c2.2,1.4,4.6,3,5.7,3.8
		c0.6,0.4,1.9,1.4,1.9,2c0.1,1.2,0.1,2.6,0.1,3c0,0.3-0.1,0.6-0.1,0.8c-0.1,0.2-0.3,0.2-0.3,0.2c-3.9,0-7.3-0.7-9.7-1.2
		c-2.4-0.5-5.9-1.4-6.1-1.4c-0.3,0-0.4,0.1-0.2,0.3c0.7,0.6,4,3.7,9.7,7.1c9.4,5.5,15,6.2,17,6.3c1.5,0.1,3.7-0.1,4.8-0.5
		c1.2-0.4,1.9-1.2,2.2-1.4c0.2-0.4,0.3-0.8,0.2-1.4c-0.1-0.6-0.5-0.8-1.1-1.5c-0.6-0.7-0.8-1.7-0.8-2.2c1.6-0.4,3.8-0.5,5.1-0.6
		c1.4-0.1,2.2,0.2,2.4,0.4c0.1,0.1,0.3,0.1,0.3,0.1s0.1,0.1,0.2,0c0-0.3-0.1-0.7-0.1-0.7s0.2,0,0.4,0c0.3,0.1,0.8,0.3,0.8,0.3
		c0.1-0.1,0.1-0.5,0.1-0.7c0-0.4-0.3-0.9-0.5-1.2c0-0.8-0.3-1.6-0.8-2.2c-0.7-0.8-2.5-2.2-3.8-3.3C107.8,32,107.8,31.7,108.1,31.5
		L108.1,31.5z"/>
</g>
</svg>
